<?xml version="1.0" encoding="utf-8"?>
<svg viewBox="0 0 14 14" xmlns="http://www.w3.org/2000/svg">
  <g id="account" fill="none">
    <path
      d="M7 8C8.38071 8 9.5 6.88071 9.5 5.5C9.5 4.11929 8.38071 3 7 3C5.61929 3 4.5 4.11929 4.5 5.5C4.5 6.88071 5.61929 8 7 8Z"
      stroke="currentColor" stroke-linecap="round" stroke-linejoin="round"/>
    <path
      d="M2.73047 11.9001C3.17671 11.1676 3.80388 10.5622 4.55168 10.1422C5.29948 9.72211 6.14276 9.50146 7.00047 9.50146C7.85818 9.50146 8.70146 9.72211 9.44926 10.1422C10.1971 10.5622 10.8242 11.1676 11.2705 11.9001"
      stroke="currentColor" stroke-linecap="round" stroke-linejoin="round"/>
    <path
      d="M7 13.5C10.5899 13.5 13.5 10.5899 13.5 7C13.5 3.41015 10.5899 0.5 7 0.5C3.41015 0.5 0.5 3.41015 0.5 7C0.5 10.5899 3.41015 13.5 7 13.5Z"
      stroke="currentColor" stroke-linecap="round" stroke-linejoin="round"/>
  </g>
</svg>
