<?xml version="1.0" encoding="utf-8"?>
<svg viewBox="0 0 14 14" xmlns="http://www.w3.org/2000/svg">
  <g id="api" fill="none">
    <path
      d="M11.3915 6.15935C11.3465 6.14592 11.3063 6.1199 11.2756 6.08435C11.2448 6.0488 11.225 6.00521 11.2182 5.95872C11.1377 5.07585 10.7569 4.24727 10.1393 3.61118C9.52182 2.97508 8.70489 2.56991 7.82479 2.46323C6.94469 2.35655 6.05462 2.55481 5.303 3.02495C4.55139 3.49509 3.98367 4.2087 3.69451 5.04676C3.67538 5.08583 3.64546 5.11862 3.60829 5.14124C3.57112 5.16387 3.52826 5.17538 3.48476 5.17443C3.06559 5.20257 2.65608 5.313 2.27959 5.49941C1.90311 5.68582 1.56702 5.94456 1.29053 6.26085C0.732129 6.89964 0.450354 7.73408 0.507193 8.58062C0.564032 9.42716 0.954829 10.2164 1.59361 10.7748C2.2324 11.3332 3.06684 11.615 3.91338 11.5582H10.7805C11.45 11.5542 12.0948 11.3048 12.5927 10.8573C13.0907 10.4098 13.4073 9.79527 13.4826 9.13001C13.5579 8.46475 13.3867 7.79498 13.0013 7.24751C12.6159 6.70004 12.0432 6.31288 11.3915 6.15935Z"
      stroke="currentColor" stroke-linecap="round" stroke-linejoin="round"/>
  </g>
</svg>
