<?xml version="1.0" encoding="utf-8"?>
<svg viewBox="0 0 14 14" xmlns="http://www.w3.org/2000/svg">
  <g id="filePdf" fill="none">
    <path d="M12.5 9.5H10.5V11.5H12" stroke="currentColor" stroke-linecap="round"
      stroke-linejoin="round"/>
    <path d="M1.5 11.5V13.5" stroke="currentColor" stroke-linecap="round" stroke-linejoin="round"/>
    <path d="M6 9.5V13.5H6.5C7.60457 13.5 8.5 12.6046 8.5 11.5C8.5 10.3954 7.60457 9.5 6.5 9.5H6Z"
      stroke="currentColor" stroke-linecap="round" stroke-linejoin="round"/>
    <path d="M10.5 11.5V13.5" stroke="currentColor" stroke-linecap="round" stroke-linejoin="round"/>
    <path d="M1.5 9.5H2.75C3.44036 9.5 4 10.0596 4 10.75C4 11.4404 3.44036 12 2.75 12H1.5V9.5Z"
      stroke="currentColor" stroke-linejoin="round"/>
    <path
      d="M1.5 7.5V1.5C1.5 1.23478 1.60536 0.98043 1.79289 0.792893C1.98043 0.605357 2.23478 0.5 2.5 0.5H9L12.5 4V7.5"
      stroke="currentColor" stroke-linecap="round" stroke-linejoin="round"/>
    <path d="M9 0.625V4H12.375" stroke="currentColor" stroke-linecap="round"
      stroke-linejoin="round"/>
  </g>
</svg>
