<?xml version="1.0" encoding="utf-8"?>
<svg viewBox="0 0 14 14" xmlns="http://www.w3.org/2000/svg">
  <g id="filters" fill="none">
    <path
      d="M2.5 4C3.32843 4 4 3.32843 4 2.5C4 1.67157 3.32843 1 2.5 1C1.67157 1 1 1.67157 1 2.5C1 3.32843 1.67157 4 2.5 4Z"
      stroke="currentColor" stroke-linecap="round" stroke-linejoin="round"/>
    <path d="M4 2.5H13" stroke="currentColor" stroke-linecap="round" stroke-linejoin="round"/>
    <path
      d="M7 8.5C7.82843 8.5 8.5 7.82843 8.5 7C8.5 6.17157 7.82843 5.5 7 5.5C6.17157 5.5 5.5 6.17157 5.5 7C5.5 7.82843 6.17157 8.5 7 8.5Z"
      stroke="currentColor" stroke-linecap="round" stroke-linejoin="round"/>
    <path d="M1 7H5.5" stroke="currentColor" stroke-linecap="round" stroke-linejoin="round"/>
    <path d="M8.5 7H13" stroke="currentColor" stroke-linecap="round" stroke-linejoin="round"/>
    <path
      d="M11.5 13C12.3284 13 13 12.3284 13 11.5C13 10.6716 12.3284 10 11.5 10C10.6716 10 10 10.6716 10 11.5C10 12.3284 10.6716 13 11.5 13Z"
      stroke="currentColor" stroke-linecap="round" stroke-linejoin="round"/>
    <path d="M10 11.5H1" stroke="currentColor" stroke-linecap="round" stroke-linejoin="round"/>
  </g>
</svg>
