<?xml version="1.0" encoding="utf-8"?>
<svg viewBox="0 0 14 14" xmlns="http://www.w3.org/2000/svg">
  <g id="series" fill="none">
    <path
      d="M7.43533 7.40008C7.29795 7.46449 7.14977 7.49772 7 7.49772C6.85022 7.49772 6.70205 7.46449 6.56467 7.40008L1.28511 4.76008C1.19937 4.7134 1.12733 4.64194 1.07699 4.55366C1.02665 4.46538 1 4.36375 1 4.26008C1 4.15641 1.02665 4.05478 1.07699 3.9665C1.12733 3.87823 1.19937 3.80677 1.28511 3.76008L6.56467 1.10008C6.70205 1.03567 6.85022 1.00244 7 1.00244C7.14977 1.00244 7.29795 1.03567 7.43533 1.10008L12.7149 3.74008C12.8006 3.78677 12.8727 3.85823 12.923 3.9465C12.9733 4.03478 13 4.13641 13 4.24008C13 4.34375 12.9733 4.44538 12.923 4.53366C12.8727 4.62194 12.8006 4.6934 12.7149 4.74008L7.43533 7.40008Z"
      stroke="currentColor" stroke-linecap="round" stroke-linejoin="round"/>
    <path
      d="M13 7.3501L7.4 10.1601C7.26972 10.2195 7.12819 10.2503 6.985 10.2503C6.84181 10.2503 6.70028 10.2195 6.57 10.1601L1 7.3501"
      stroke="currentColor" stroke-linecap="round" stroke-linejoin="round"/>
    <path
      d="M13 10.1001L7.4 12.9101C7.26972 12.9695 7.12819 13.0003 6.985 13.0003C6.84181 13.0003 6.70028 12.9695 6.57 12.9101L1 10.1001"
      stroke="currentColor" stroke-linecap="round" stroke-linejoin="round"/>
  </g>
</svg>
