<?xml version="1.0" encoding="utf-8"?>
<svg viewBox="0 0 14 14" xmlns="http://www.w3.org/2000/svg">
  <g id="ticketBlank" fill="none">
    <path
      d="M5.25807 13.2299C5.59487 13.5667 6.1157 13.592 6.42137 13.2863L13.2863 6.42137C13.592 6.1157 13.5667 5.59487 13.2299 5.25807L12.108 4.13617C11.5256 4.45067 10.7441 4.32891 10.2076 3.79239C9.67109 3.25588 9.54933 2.47439 9.86383 1.89198L8.74193 0.77008C8.40513 0.433279 7.8843 0.408045 7.57863 0.713717L0.713717 7.57863C0.408044 7.8843 0.433279 8.40513 0.770081 8.74193L1.88944 9.86129C2.473 9.53913 3.26108 9.659 3.80104 10.199C4.341 10.7389 4.46087 11.527 4.13871 12.1106L5.25807 13.2299Z"
      stroke="currentColor" stroke-linecap="round" stroke-linejoin="round"/>
    <line x1="5" y1="0.707107" x2="0.707107" y2="5" stroke="currentColor" stroke-linecap="round"/>
    <line x1="13.6016" y1="8.70711" x2="9.30867" y2="13" stroke="currentColor"
      stroke-linecap="round"/>
  </g>
</svg>
