<?xml version="1.0" encoding="utf-8"?>
<svg viewBox="0 0 14 14" xmlns="http://www.w3.org/2000/svg">
  <g id="userSettings" fill="none">
    <path
      d="M5 5.5C6.38071 5.5 7.5 4.38071 7.5 3C7.5 1.61929 6.38071 0.5 5 0.5C3.61929 0.5 2.5 1.61929 2.5 3C2.5 4.38071 3.61929 5.5 5 5.5Z"
      stroke="currentColor" stroke-linecap="round" stroke-linejoin="round"/>
    <path
      d="M9.61025 7.84503L9.8264 7.28705C9.86285 7.19257 9.92699 7.11131 10.0104 7.05391C10.0938 6.9965 10.1926 6.96563 10.2939 6.96533H10.7061C10.8074 6.96563 10.9062 6.9965 10.9896 7.05391C11.073 7.11131 11.1371 7.19257 11.1736 7.28705L11.3898 7.84503L12.1237 8.26729L12.7168 8.1768C12.8156 8.1634 12.9161 8.17965 13.0056 8.22351C13.0952 8.26737 13.1696 8.33685 13.2195 8.42312L13.4206 8.775C13.4721 8.86264 13.4959 8.96385 13.4887 9.06526C13.4815 9.16667 13.4438 9.26352 13.3804 9.34303L13.0134 9.81053V10.655L13.3904 11.1225C13.4538 11.202 13.4916 11.2989 13.4987 11.4003C13.5059 11.5017 13.4822 11.6029 13.4307 11.6905L13.2296 12.0424C13.1797 12.1287 13.1052 12.1982 13.0157 12.242C12.9262 12.2859 12.8257 12.3021 12.7269 12.2887L12.1337 12.1983L11.3998 12.6205L11.1837 13.1785C11.1472 13.273 11.0831 13.3542 10.9996 13.4116C10.9162 13.469 10.8174 13.4999 10.7162 13.5002H10.2939C10.1926 13.4999 10.0938 13.469 10.0104 13.4116C9.92699 13.3542 9.86285 13.273 9.8264 13.1785L9.61025 12.6205L8.87632 12.1983L8.28315 12.2887C8.18438 12.3021 8.08386 12.2859 7.99435 12.242C7.90484 12.1982 7.8304 12.1287 7.78047 12.0424L7.57939 11.6905C7.52787 11.6029 7.50413 11.5017 7.51131 11.4003C7.51849 11.2989 7.55625 11.202 7.61961 11.1225L7.98657 10.655V9.81053L7.60955 9.34303C7.5462 9.26352 7.50843 9.16667 7.50126 9.06526C7.49408 8.96385 7.51781 8.86264 7.56934 8.775L7.77041 8.42312C7.82034 8.33685 7.89479 8.26737 7.9843 8.22351C8.07381 8.17965 8.17433 8.1634 8.2731 8.1768L8.86627 8.26729L9.61025 7.84503Z"
      stroke="currentColor" stroke-linecap="round" stroke-linejoin="round"/>
    <path
      d="M10 10.2319C10 10.3645 10.0527 10.4917 10.1464 10.5855C10.2402 10.6793 10.3674 10.7319 10.5 10.7319C10.6326 10.7319 10.7598 10.6793 10.8536 10.5855C10.9473 10.4917 11 10.3645 11 10.2319C11 10.0993 10.9473 9.97215 10.8536 9.87838C10.7598 9.78461 10.6326 9.73193 10.5 9.73193C10.3674 9.73193 10.2402 9.78461 10.1464 9.87838C10.0527 9.97215 10 10.0993 10 10.2319Z"
      stroke="currentColor" stroke-linecap="round" stroke-linejoin="round"/>
    <path
      d="M5.66406 12.5H0.5V12C0.5 9.51472 2.51472 7.5 5 7.5C5.33676 7.5 5.66489 7.53699 5.98053 7.60714"
      stroke="currentColor" stroke-linecap="round" stroke-linejoin="round"/>
  </g>
</svg>
